<svg width="86" height="34" viewBox="0 0 86 34" fill="none" xmlns="http://www.w3.org/2000/svg">
<g filter="url(#filter0_dd_180_3321)">
<path d="M37.6198 23.0299C43.2149 23.0299 47.7507 18.3222 47.7507 12.515C47.7507 6.70771 43.2149 2 37.6198 2C32.0246 2 27.4889 6.70771 27.4889 12.515C27.4889 18.3222 32.0246 23.0299 37.6198 23.0299Z" stroke="white" stroke-width="3" stroke-miterlimit="10" stroke-linecap="round" stroke-linejoin="round"/>
<path d="M16.132 24C21.7271 24 26.2629 19.2923 26.2629 13.485C26.2629 7.6778 21.7271 2.97009 16.132 2.97009C10.5369 2.97009 6.0011 7.6778 6.0011 13.485C6.0011 19.2923 10.5369 24 16.132 24Z" stroke="white" stroke-width="3" stroke-miterlimit="10" stroke-linecap="round" stroke-linejoin="round"/>
<path d="M6 13.4415V23.8189" stroke="white" stroke-width="3" stroke-miterlimit="10" stroke-linecap="round" stroke-linejoin="round"/>
<path d="M59.0424 23.0299C53.4471 23.0299 48.9115 18.3224 48.9115 12.515C48.9115 6.70748 53.4479 2 59.0424 2C64.6369 2 69.1733 6.70748 69.1733 12.515" stroke="white" stroke-width="3" stroke-miterlimit="10" stroke-linecap="round" stroke-linejoin="round"/>
<path d="M69.1716 12.515H48.9115" stroke="white" stroke-width="3" stroke-miterlimit="10" stroke-linecap="round" stroke-linejoin="round"/>
<path d="M74.0218 2.06042C74.0218 7.31833 73.939 22.9697 73.939 22.9697" stroke="white" stroke-width="3" stroke-miterlimit="10" stroke-linecap="round" stroke-linejoin="round"/>
<path d="M78.0002 12.5147L71.1199 12.4852" stroke="white" stroke-width="3" stroke-miterlimit="10" stroke-linecap="round" stroke-linejoin="round"/>
</g>
<defs>
<filter id="filter0_dd_180_3321" x="0.5" y="0.5" width="85.0002" height="33" filterUnits="userSpaceOnUse" color-interpolation-filters="sRGB">
<feFlood flood-opacity="0" result="BackgroundImageFix"/>
<feColorMatrix in="SourceAlpha" type="matrix" values="0 0 0 0 0 0 0 0 0 0 0 0 0 0 0 0 0 0 127 0" result="hardAlpha"/>
<feOffset dy="4"/>
<feGaussianBlur stdDeviation="2"/>
<feComposite in2="hardAlpha" operator="out"/>
<feColorMatrix type="matrix" values="0 0 0 0 0 0 0 0 0 0 0 0 0 0 0 0 0 0 0.25 0"/>
<feBlend mode="normal" in2="BackgroundImageFix" result="effect1_dropShadow_180_3321"/>
<feColorMatrix in="SourceAlpha" type="matrix" values="0 0 0 0 0 0 0 0 0 0 0 0 0 0 0 0 0 0 127 0" result="hardAlpha"/>
<feOffset dx="2" dy="4"/>
<feGaussianBlur stdDeviation="2"/>
<feComposite in2="hardAlpha" operator="out"/>
<feColorMatrix type="matrix" values="0 0 0 0 0 0 0 0 0 0 0 0 0 0 0 0 0 0 0.8 0"/>
<feBlend mode="normal" in2="effect1_dropShadow_180_3321" result="effect2_dropShadow_180_3321"/>
<feBlend mode="normal" in="SourceGraphic" in2="effect2_dropShadow_180_3321" result="shape"/>
</filter>
</defs>
</svg>
