<svg width="76" height="26" viewBox="0 0 76 26" fill="none" xmlns="http://www.w3.org/2000/svg">
<path d="M33.6198 23.0299C39.2149 23.0299 43.7507 18.3222 43.7507 12.515C43.7507 6.70771 39.2149 2 33.6198 2C28.0246 2 23.4889 6.70771 23.4889 12.515C23.4889 18.3222 28.0246 23.0299 33.6198 23.0299Z" stroke="white" stroke-width="3" stroke-miterlimit="10" stroke-linecap="round" stroke-linejoin="round"/>
<path d="M12.132 24C17.7271 24 22.2629 19.2923 22.2629 13.485C22.2629 7.6778 17.7271 2.97009 12.132 2.97009C6.53685 2.97009 2.0011 7.6778 2.0011 13.485C2.0011 19.2923 6.53685 24 12.132 24Z" stroke="white" stroke-width="3" stroke-miterlimit="10" stroke-linecap="round" stroke-linejoin="round"/>
<path d="M2 13.4415V23.8189" stroke="white" stroke-width="3" stroke-miterlimit="10" stroke-linecap="round" stroke-linejoin="round"/>
<path d="M55.0424 23.0299C49.4471 23.0299 44.9115 18.3224 44.9115 12.515C44.9115 6.70748 49.4479 2 55.0424 2C60.6369 2 65.1733 6.70748 65.1733 12.515" stroke="white" stroke-width="3" stroke-miterlimit="10" stroke-linecap="round" stroke-linejoin="round"/>
<path d="M65.1716 12.515H44.9115" stroke="white" stroke-width="3" stroke-miterlimit="10" stroke-linecap="round" stroke-linejoin="round"/>
<path d="M70.0218 2.06042C70.0218 7.31833 69.939 22.9697 69.939 22.9697" stroke="white" stroke-width="3" stroke-miterlimit="10" stroke-linecap="round" stroke-linejoin="round"/>
<path d="M74.0002 12.5147L67.1199 12.4852" stroke="white" stroke-width="3" stroke-miterlimit="10" stroke-linecap="round" stroke-linejoin="round"/>
</svg>
